<mxfile host="app.diagrams.net" modified="2023-05-08T15:35:57.856Z" agent="Mozilla/5.0 (Macintosh; Intel Mac OS X 10_15_7) AppleWebKit/537.36 (KHTML, like Gecko) Chrome/113.0.0.0 Safari/537.36" etag="W_ErNmxZs1FxtRv7Co_8" version="21.2.9" type="device">
  <diagram id="P3egCbBItE-vjyixLVVF" name="Page-1">
    <mxGraphModel dx="2714" dy="1434" grid="1" gridSize="10" guides="1" tooltips="1" connect="1" arrows="1" fold="1" page="1" pageScale="1" pageWidth="1100" pageHeight="850" math="0" shadow="0">
      <root>
        <mxCell id="0" />
        <mxCell id="1" parent="0" />
        <mxCell id="ZZdG2KbTojn6cw3QZEdF-10" value="&lt;i&gt;&lt;b&gt;Orient&lt;/b&gt;&lt;/i&gt;" style="rounded=0;whiteSpace=wrap;html=1;dashed=1;fillColor=none;verticalAlign=bottom;" parent="1" vertex="1">
          <mxGeometry x="40" y="420" width="240" height="90" as="geometry" />
        </mxCell>
        <mxCell id="ZZdG2KbTojn6cw3QZEdF-11" value="&lt;b&gt;&lt;i&gt;Decide&lt;/i&gt;&lt;/b&gt;" style="rounded=0;whiteSpace=wrap;html=1;dashed=1;fillColor=none;verticalAlign=top;" parent="1" vertex="1">
          <mxGeometry x="160" y="130" width="120" height="210" as="geometry" />
        </mxCell>
        <mxCell id="ZZdG2KbTojn6cw3QZEdF-12" value="&lt;b&gt;&lt;i&gt;Act&lt;/i&gt;&lt;/b&gt;" style="rounded=0;whiteSpace=wrap;html=1;dashed=1;fillColor=none;verticalAlign=top;" parent="1" vertex="1">
          <mxGeometry x="360" y="130" width="240" height="210" as="geometry" />
        </mxCell>
        <mxCell id="ZZdG2KbTojn6cw3QZEdF-9" value="&lt;i&gt;&lt;b&gt;Observe&lt;/b&gt;&lt;/i&gt;" style="rounded=0;whiteSpace=wrap;html=1;dashed=1;fillColor=none;verticalAlign=bottom;" parent="1" vertex="1">
          <mxGeometry x="480" y="420" width="240" height="90" as="geometry" />
        </mxCell>
        <mxCell id="8yW3HtKEOS8D6HbiddwS-1" value="Experiment&lt;br&gt;Design Plan" style="sketch=0;pointerEvents=1;shadow=0;dashed=0;html=1;strokeColor=none;fillColor=#505050;labelPosition=center;verticalLabelPosition=bottom;verticalAlign=top;outlineConnect=0;align=center;shape=mxgraph.office.concepts.document;" parent="1" vertex="1">
          <mxGeometry x="70" y="280" width="30" height="40" as="geometry" />
        </mxCell>
        <mxCell id="8yW3HtKEOS8D6HbiddwS-2" value="(Remote)&lt;br&gt;Planner" style="rounded=1;whiteSpace=wrap;html=1;fillColor=#ffcd28;gradientColor=#ffa500;strokeColor=#d79b00;" parent="1" vertex="1">
          <mxGeometry x="180" y="280" width="80" height="40" as="geometry" />
        </mxCell>
        <mxCell id="8yW3HtKEOS8D6HbiddwS-9" value="" style="endArrow=classic;html=1;rounded=0;exitX=1;exitY=0.25;exitDx=0;exitDy=0;entryX=0;entryY=0.25;entryDx=0;entryDy=0;" parent="1" source="8yW3HtKEOS8D6HbiddwS-2" target="dFVkOQzTJZFN7Ul7vsh8-2" edge="1">
          <mxGeometry width="50" height="50" relative="1" as="geometry">
            <mxPoint x="280" y="510" as="sourcePoint" />
            <mxPoint x="290" y="330" as="targetPoint" />
          </mxGeometry>
        </mxCell>
        <mxCell id="8yW3HtKEOS8D6HbiddwS-4" value="Test" style="ellipse;shape=cloud;whiteSpace=wrap;html=1;fillColor=#d5e8d4;gradientColor=#97d077;strokeColor=#82b366;" parent="1" vertex="1">
          <mxGeometry x="500" y="360" width="80" height="40" as="geometry" />
        </mxCell>
        <mxCell id="ZZdG2KbTojn6cw3QZEdF-1" value="Sensors" style="rounded=1;whiteSpace=wrap;html=1;fillColor=#fff2cc;gradientColor=#ffd966;strokeColor=#d6b656;" parent="1" vertex="1">
          <mxGeometry x="500" y="440" width="80" height="40" as="geometry" />
        </mxCell>
        <mxCell id="ZZdG2KbTojn6cw3QZEdF-2" value="Actuators" style="rounded=1;whiteSpace=wrap;html=1;fillColor=#fff2cc;gradientColor=#ffd966;strokeColor=#d6b656;" parent="1" vertex="1">
          <mxGeometry x="500" y="280" width="80" height="40" as="geometry" />
        </mxCell>
        <mxCell id="ZZdG2KbTojn6cw3QZEdF-3" value="" style="endArrow=classic;html=1;rounded=0;exitX=0.5;exitY=1;exitDx=0;exitDy=0;entryX=0.5;entryY=0;entryDx=0;entryDy=0;" parent="1" source="ZZdG2KbTojn6cw3QZEdF-2" target="8yW3HtKEOS8D6HbiddwS-4" edge="1">
          <mxGeometry width="50" height="50" relative="1" as="geometry">
            <mxPoint x="420" y="560" as="sourcePoint" />
            <mxPoint x="670" y="350" as="targetPoint" />
          </mxGeometry>
        </mxCell>
        <mxCell id="ZZdG2KbTojn6cw3QZEdF-5" value="Remote&lt;br&gt;Analyser" style="rounded=1;whiteSpace=wrap;html=1;fillColor=#ffcd28;gradientColor=#ffa500;strokeColor=#d79b00;" parent="1" vertex="1">
          <mxGeometry x="180" y="440" width="80" height="40" as="geometry" />
        </mxCell>
        <mxCell id="ZZdG2KbTojn6cw3QZEdF-6" value="" style="endArrow=classic;html=1;rounded=0;exitX=0;exitY=0.25;exitDx=0;exitDy=0;entryX=1;entryY=0.25;entryDx=0;entryDy=0;" parent="1" source="ZZdG2KbTojn6cw3QZEdF-1" target="ZZdG2KbTojn6cw3QZEdF-5" edge="1">
          <mxGeometry width="50" height="50" relative="1" as="geometry">
            <mxPoint x="300" y="570" as="sourcePoint" />
            <mxPoint x="350" y="520" as="targetPoint" />
          </mxGeometry>
        </mxCell>
        <mxCell id="ZZdG2KbTojn6cw3QZEdF-7" value="" style="endArrow=classic;html=1;rounded=0;exitX=0.5;exitY=0;exitDx=0;exitDy=0;entryX=0.5;entryY=1;entryDx=0;entryDy=0;" parent="1" source="ZZdG2KbTojn6cw3QZEdF-5" target="8yW3HtKEOS8D6HbiddwS-2" edge="1">
          <mxGeometry width="50" height="50" relative="1" as="geometry">
            <mxPoint x="260" y="570" as="sourcePoint" />
            <mxPoint x="310" y="520" as="targetPoint" />
          </mxGeometry>
        </mxCell>
        <mxCell id="ivcJ0Vw7QY5pCtP25yYA-1" value="&lt;br&gt;Local&lt;br&gt;Storage" style="strokeWidth=1;html=1;shape=mxgraph.flowchart.database;whiteSpace=wrap;labelBackgroundColor=none;fillColor=#fff2cc;gradientColor=#ffd966;strokeColor=#d6b656;" parent="1" vertex="1">
          <mxGeometry x="640" y="430" width="60" height="60" as="geometry" />
        </mxCell>
        <mxCell id="ivcJ0Vw7QY5pCtP25yYA-2" value="" style="shape=flexArrow;endArrow=classic;html=1;rounded=0;exitX=1;exitY=0.5;exitDx=0;exitDy=0;endSize=5;startSize=5;startArrow=block;" parent="1" source="ZZdG2KbTojn6cw3QZEdF-1" target="ivcJ0Vw7QY5pCtP25yYA-1" edge="1">
          <mxGeometry width="50" height="50" relative="1" as="geometry">
            <mxPoint x="360" y="550" as="sourcePoint" />
            <mxPoint x="640" y="510" as="targetPoint" />
          </mxGeometry>
        </mxCell>
        <mxCell id="ivcJ0Vw7QY5pCtP25yYA-3" value="" style="shape=flexArrow;endArrow=classic;html=1;rounded=0;entryX=1;entryY=0.5;entryDx=0;entryDy=0;startArrow=block;startSize=5;endSize=5;entryPerimeter=0;" parent="1" source="ZZdG2KbTojn6cw3QZEdF-5" target="ivcJ0Vw7QY5pCtP25yYA-14" edge="1">
          <mxGeometry width="50" height="50" relative="1" as="geometry">
            <mxPoint x="340" y="430" as="sourcePoint" />
            <mxPoint x="410" y="430" as="targetPoint" />
          </mxGeometry>
        </mxCell>
        <mxCell id="ivcJ0Vw7QY5pCtP25yYA-6" value="" style="shape=flexArrow;endArrow=classic;html=1;rounded=0;exitX=0.5;exitY=1;exitDx=0;exitDy=0;entryX=0.5;entryY=0;entryDx=0;entryDy=0;endSize=5;startSize=5;" parent="1" source="8yW3HtKEOS8D6HbiddwS-4" target="ZZdG2KbTojn6cw3QZEdF-1" edge="1">
          <mxGeometry width="50" height="50" relative="1" as="geometry">
            <mxPoint x="510" y="450" as="sourcePoint" />
            <mxPoint x="470" y="411" as="targetPoint" />
          </mxGeometry>
        </mxCell>
        <mxCell id="ivcJ0Vw7QY5pCtP25yYA-10" value="" style="shape=flexArrow;endArrow=classic;html=1;rounded=0;endSize=5;startSize=5;entryX=0;entryY=0.5;entryDx=0;entryDy=0;" parent="1" target="8yW3HtKEOS8D6HbiddwS-2" edge="1">
          <mxGeometry width="50" height="50" relative="1" as="geometry">
            <mxPoint x="110" y="300" as="sourcePoint" />
            <mxPoint x="560" y="400" as="targetPoint" />
          </mxGeometry>
        </mxCell>
        <mxCell id="ivcJ0Vw7QY5pCtP25yYA-14" value="&lt;br&gt;Local&lt;br&gt;Storage" style="strokeWidth=1;html=1;shape=mxgraph.flowchart.database;whiteSpace=wrap;labelBackgroundColor=none;fillColor=#ffcd28;gradientColor=#ffa500;strokeColor=#d79b00;" parent="1" vertex="1">
          <mxGeometry x="60" y="430" width="60" height="60" as="geometry" />
        </mxCell>
        <mxCell id="ivcJ0Vw7QY5pCtP25yYA-18" value="&lt;br&gt;Local&lt;br&gt;Storage" style="strokeWidth=1;html=1;shape=mxgraph.flowchart.database;whiteSpace=wrap;labelBackgroundColor=none;fillColor=#ffcd28;gradientColor=#ffa500;strokeColor=#d79b00;" parent="1" vertex="1">
          <mxGeometry x="190" y="160" width="60" height="60" as="geometry" />
        </mxCell>
        <mxCell id="ivcJ0Vw7QY5pCtP25yYA-19" value="" style="shape=flexArrow;endArrow=classic;html=1;rounded=0;startArrow=block;startSize=5;endSize=5;" parent="1" source="ivcJ0Vw7QY5pCtP25yYA-18" target="8yW3HtKEOS8D6HbiddwS-2" edge="1">
          <mxGeometry width="50" height="50" relative="1" as="geometry">
            <mxPoint x="230" y="490" as="sourcePoint" />
            <mxPoint x="230" y="530" as="targetPoint" />
          </mxGeometry>
        </mxCell>
        <mxCell id="ivcJ0Vw7QY5pCtP25yYA-20" value="" style="shape=flexArrow;endArrow=classic;html=1;rounded=0;endSize=5;startSize=5;entryX=1;entryY=0.75;entryDx=0;entryDy=0;exitX=0;exitY=0.75;exitDx=0;exitDy=0;" parent="1" source="ZZdG2KbTojn6cw3QZEdF-1" target="ZZdG2KbTojn6cw3QZEdF-5" edge="1">
          <mxGeometry width="50" height="50" relative="1" as="geometry">
            <mxPoint x="500" y="570" as="sourcePoint" />
            <mxPoint x="280" y="610" as="targetPoint" />
          </mxGeometry>
        </mxCell>
        <mxCell id="ivcJ0Vw7QY5pCtP25yYA-21" value="" style="shape=flexArrow;endArrow=classic;html=1;rounded=0;endSize=5;startSize=5;entryX=0.75;entryY=1;entryDx=0;entryDy=0;exitX=0.75;exitY=0;exitDx=0;exitDy=0;" parent="1" source="ZZdG2KbTojn6cw3QZEdF-5" target="8yW3HtKEOS8D6HbiddwS-2" edge="1">
          <mxGeometry width="50" height="50" relative="1" as="geometry">
            <mxPoint x="410" y="490" as="sourcePoint" />
            <mxPoint x="270" y="490" as="targetPoint" />
          </mxGeometry>
        </mxCell>
        <mxCell id="dFVkOQzTJZFN7Ul7vsh8-2" value="Controller" style="rounded=1;whiteSpace=wrap;html=1;fillColor=#fff2cc;gradientColor=#ffd966;strokeColor=#d6b656;" parent="1" vertex="1">
          <mxGeometry x="390" y="280" width="80" height="40" as="geometry" />
        </mxCell>
        <mxCell id="dFVkOQzTJZFN7Ul7vsh8-3" value="" style="endArrow=classic;html=1;rounded=0;exitX=1;exitY=0.5;exitDx=0;exitDy=0;entryX=0;entryY=0.5;entryDx=0;entryDy=0;" parent="1" source="dFVkOQzTJZFN7Ul7vsh8-2" target="ZZdG2KbTojn6cw3QZEdF-2" edge="1">
          <mxGeometry width="50" height="50" relative="1" as="geometry">
            <mxPoint x="320" y="310" as="sourcePoint" />
            <mxPoint x="400" y="310" as="targetPoint" />
          </mxGeometry>
        </mxCell>
        <mxCell id="dFVkOQzTJZFN7Ul7vsh8-4" value="" style="shape=flexArrow;endArrow=classic;html=1;rounded=0;endSize=5;startSize=5;exitX=1;exitY=0.75;exitDx=0;exitDy=0;" parent="1" source="8yW3HtKEOS8D6HbiddwS-2" target="npaR9_RIwSEVTO6pdhhh-1" edge="1">
          <mxGeometry width="50" height="50" relative="1" as="geometry">
            <mxPoint x="549.9999999999998" y="480" as="sourcePoint" />
            <mxPoint x="290" y="310" as="targetPoint" />
          </mxGeometry>
        </mxCell>
        <mxCell id="dFVkOQzTJZFN7Ul7vsh8-5" value="&lt;br&gt;Local&lt;br&gt;Storage" style="strokeWidth=1;html=1;shape=mxgraph.flowchart.database;whiteSpace=wrap;labelBackgroundColor=none;fillColor=#fff2cc;gradientColor=#ffd966;strokeColor=#d6b656;" parent="1" vertex="1">
          <mxGeometry x="400" y="160" width="60" height="60" as="geometry" />
        </mxCell>
        <mxCell id="dFVkOQzTJZFN7Ul7vsh8-6" value="" style="shape=flexArrow;endArrow=classic;html=1;rounded=0;startArrow=block;startSize=5;endSize=5;exitX=0.5;exitY=1;exitDx=0;exitDy=0;exitPerimeter=0;" parent="1" source="dFVkOQzTJZFN7Ul7vsh8-5" target="dFVkOQzTJZFN7Ul7vsh8-2" edge="1">
          <mxGeometry width="50" height="50" relative="1" as="geometry">
            <mxPoint x="280" y="229.9999999999999" as="sourcePoint" />
            <mxPoint x="280" y="290" as="targetPoint" />
          </mxGeometry>
        </mxCell>
        <mxCell id="npaR9_RIwSEVTO6pdhhh-1" value="Experiment&lt;br&gt;Plan" style="sketch=0;pointerEvents=1;shadow=0;dashed=0;html=1;strokeColor=none;fillColor=#505050;labelPosition=center;verticalLabelPosition=bottom;verticalAlign=top;outlineConnect=0;align=center;shape=mxgraph.office.concepts.document;" parent="1" vertex="1">
          <mxGeometry x="310" y="290" width="30" height="40" as="geometry" />
        </mxCell>
        <mxCell id="npaR9_RIwSEVTO6pdhhh-3" value="" style="shape=flexArrow;endArrow=classic;html=1;rounded=0;endSize=5;startSize=5;entryX=0;entryY=0.75;entryDx=0;entryDy=0;" parent="1" source="npaR9_RIwSEVTO6pdhhh-1" target="dFVkOQzTJZFN7Ul7vsh8-2" edge="1">
          <mxGeometry width="50" height="50" relative="1" as="geometry">
            <mxPoint x="340" y="309.67" as="sourcePoint" />
            <mxPoint x="390" y="400" as="targetPoint" />
          </mxGeometry>
        </mxCell>
        <mxCell id="VkyYRV7OeZ9-JTZXdJNw-1" value="Raw Experiment&lt;br&gt;Result" style="sketch=0;pointerEvents=1;shadow=0;dashed=0;html=1;strokeColor=none;fillColor=#505050;labelPosition=center;verticalLabelPosition=bottom;verticalAlign=top;outlineConnect=0;align=center;shape=mxgraph.office.concepts.document;" parent="1" vertex="1">
          <mxGeometry x="780" y="440" width="30" height="40" as="geometry" />
        </mxCell>
        <mxCell id="VkyYRV7OeZ9-JTZXdJNw-2" value="" style="shape=flexArrow;endArrow=classic;html=1;rounded=0;endSize=5;startSize=5;" parent="1" source="ivcJ0Vw7QY5pCtP25yYA-1" edge="1">
          <mxGeometry width="50" height="50" relative="1" as="geometry">
            <mxPoint x="770" y="340" as="sourcePoint" />
            <mxPoint x="770" y="460" as="targetPoint" />
          </mxGeometry>
        </mxCell>
        <mxCell id="6qDZnIQ_Nw9a1LtElnTI-1" value="Optional&lt;br&gt;Post-Processed&lt;br&gt;Experiment Result" style="sketch=0;pointerEvents=1;shadow=0;dashed=1;html=1;strokeColor=none;fillColor=#505050;labelPosition=center;verticalLabelPosition=bottom;verticalAlign=top;outlineConnect=0;align=center;shape=mxgraph.office.concepts.document;" parent="1" vertex="1">
          <mxGeometry x="780" y="280" width="30" height="40" as="geometry" />
        </mxCell>
        <mxCell id="6qDZnIQ_Nw9a1LtElnTI-2" value="" style="shape=flexArrow;endArrow=classic;html=1;rounded=0;endSize=5;startSize=5;exitX=1;exitY=0.5;exitDx=0;exitDy=0;dashed=1;" parent="1" source="6qDZnIQ_Nw9a1LtElnTI-3" edge="1">
          <mxGeometry width="50" height="50" relative="1" as="geometry">
            <mxPoint x="600" y="300" as="sourcePoint" />
            <mxPoint x="770" y="300" as="targetPoint" />
          </mxGeometry>
        </mxCell>
        <mxCell id="6qDZnIQ_Nw9a1LtElnTI-3" value="Optional&lt;br&gt;Post-Processing" style="rounded=1;whiteSpace=wrap;html=1;dashed=1;fillColor=#f5f5f5;gradientColor=#b3b3b3;strokeColor=#666666;" parent="1" vertex="1">
          <mxGeometry x="620" y="280" width="100" height="40" as="geometry" />
        </mxCell>
        <mxCell id="6qDZnIQ_Nw9a1LtElnTI-4" value="" style="shape=flexArrow;endArrow=classic;html=1;rounded=0;endSize=5;startSize=5;dashed=1;entryX=0.5;entryY=1;entryDx=0;entryDy=0;exitX=0.5;exitY=0;exitDx=0;exitDy=0;exitPerimeter=0;" parent="1" source="ivcJ0Vw7QY5pCtP25yYA-1" target="6qDZnIQ_Nw9a1LtElnTI-3" edge="1">
          <mxGeometry width="50" height="50" relative="1" as="geometry">
            <mxPoint x="670" y="390" as="sourcePoint" />
            <mxPoint x="670" y="360" as="targetPoint" />
          </mxGeometry>
        </mxCell>
        <mxCell id="6qDZnIQ_Nw9a1LtElnTI-5" value="&amp;nbsp;Control&amp;nbsp;" style="endArrow=classic;html=1;rounded=0;entryX=0;entryY=0.5;entryDx=0;entryDy=0;" parent="1" edge="1">
          <mxGeometry width="50" height="50" relative="1" as="geometry">
            <mxPoint x="770" y="140" as="sourcePoint" />
            <mxPoint x="840" y="140" as="targetPoint" />
          </mxGeometry>
        </mxCell>
        <mxCell id="6qDZnIQ_Nw9a1LtElnTI-6" value="&amp;nbsp;Data&amp;nbsp;" style="shape=flexArrow;endArrow=classic;html=1;rounded=0;endSize=5;startSize=5;" parent="1" edge="1">
          <mxGeometry width="50" height="50" relative="1" as="geometry">
            <mxPoint x="770" y="170" as="sourcePoint" />
            <mxPoint x="840" y="170" as="targetPoint" />
          </mxGeometry>
        </mxCell>
      </root>
    </mxGraphModel>
  </diagram>
</mxfile>
